# xmcd
#
# Track frame offsets:
#	150
#	13220
#	26237
#	40736
#	51369
#	62656
#	76140
#	89775
#	107718
#	119591
#	135281
#	147702
#	163288
#
# Disc length: 2360 seconds
#
# Revision: 1
# Processed by: cddbd v1.5.2PL0 Copyright (c) Steve Scherf et al.
# Submitted via: audiograbber 1.83.01
#
DISCID=be09360d
DTITLE=The Misty Valley Boys - Bluegrass Piedmont Style
DYEAR=2005
DGENRE=Bluegrass
TTITLE0=Nowhere Man
TTITLE1=Moonlight On Kentucky
TTITLE2=Fill'Er Up Bartender
TTITLE3=He Knows I'm Weak
TTITLE4=Two Little Children
TTITLE5=Ice Covered Birches
TTITLE6=Too Long
TTITLE7=(I'll Take) The Blame For It All
TTITLE8=I Forgot To Care
TTITLE9=The Family Who Prays
TTITLE10=Bluegrass Women
TTITLE11=The Cotton Mill Song
TTITLE12=Mandy Jane
EXTD=
EXTT0=
EXTT1=
EXTT2=
EXTT3=
EXTT4=
EXTT5=
EXTT6=
EXTT7=
EXTT8=
EXTT9=
EXTT10=
EXTT11=
EXTT12=
PLAYORDER=
